<svg width="208" height="258" viewBox="0 0 208 258" fill="none" xmlns="http://www.w3.org/2000/svg" role="img" aria-labelledby="title desc">
  <title id="title">Atlas</title>
  <desc id="desc">Atlas logo with a stylized white A, blue inner triangle and wordmark</desc>
  <g filter="url(#logo-glow)">
    <path d="M92.5 46H112.8L173.6 164H142.8L102.7 87.8L62.5 164H31.9L92.5 46Z" fill="url(#white-face)"/>
    <path d="M102.7 89L132.3 146.7H121.4L102.7 110.3L83.5 146.7H72.6L102.7 89Z" fill="#020712"/>
    <path d="M102.7 133.4L117.3 160.6H88L102.7 133.4Z" fill="#1F63FF"/>
  </g>
  <g fill="url(#wordmark-fill)">
    <path d="M23.5 210.1H33.1L46 237H37.5L35.3 232.1H21.3L19.1 237H10.6L23.5 210.1ZM32.6 225.8L28.3 216.4L24 225.8H32.6Z"/>
    <path d="M58.6 216.9H49V210.1H76.1V216.9H66.5V237H58.6V216.9Z"/>
    <path d="M88.8 210.1H96.7V230.2H113.4V237H88.8V210.1Z"/>
    <path d="M133.7 210.1H143.3L156.2 237H147.7L145.5 232.1H131.5L129.3 237H120.8L133.7 210.1ZM142.8 225.8L138.5 216.4L134.2 225.8H142.8Z"/>
    <path d="M167.5 228.3C171.5 230 176.3 230.8 181.1 230.8C185.9 230.8 187.4 230.2 187.4 228.9C187.4 227.6 185.9 227.2 180.2 226.8C171.5 226.2 166 224.6 166 218.7C166 212.8 171.2 209.4 181.5 209.4C186.6 209.4 191.1 210.2 194.5 211.6V218.4C190.9 216.9 186.2 216.1 181.5 216.1C176.5 216.1 174.1 216.8 174.1 218.3C174.1 219.6 175.6 220.1 181.6 220.5C190.7 221.1 195.5 223 195.5 228.6C195.5 234.5 190.9 237.7 181 237.7C175.4 237.7 170.4 236.9 167.5 235.6V228.3Z"/>
  </g>
  <defs>
    <linearGradient id="white-face" x1="102.8" y1="46" x2="102.8" y2="164" gradientUnits="userSpaceOnUse">
      <stop stop-color="#FFFFFF"/>
      <stop offset="1" stop-color="#F3F5FA"/>
    </linearGradient>
    <linearGradient id="wordmark-fill" x1="103" y1="210.1" x2="103" y2="237.7" gradientUnits="userSpaceOnUse">
      <stop stop-color="#FFFFFF"/>
      <stop offset="1" stop-color="#EEF1F7"/>
    </linearGradient>
    <filter id="logo-glow" x="25.9" y="40" width="153.7" height="130.6" filterUnits="userSpaceOnUse" color-interpolation-filters="sRGB">
      <feFlood flood-opacity="0" result="BackgroundImageFix"/>
      <feColorMatrix in="SourceAlpha" type="matrix" values="0 0 0 0 0 0 0 0 0 0 0 0 0 0 0 0 0 0 127 0" result="hardAlpha"/>
      <feOffset/>
      <feGaussianBlur stdDeviation="3"/>
      <feComposite in2="hardAlpha" operator="out"/>
      <feColorMatrix type="matrix" values="0 0 0 0 0.7 0 0 0 0 0.78 0 0 0 0 1 0 0 0 0.24 0"/>
      <feBlend mode="normal" in2="BackgroundImageFix" result="effect1_dropShadow"/>
      <feBlend mode="normal" in="SourceGraphic" in2="effect1_dropShadow" result="shape"/>
    </filter>
  </defs>
</svg>
